<?xml version="1.0" encoding="UTF-8" standalone="no"?>
<svg
   xmlns:dc="http://purl.org/dc/elements/1.1/"
   xmlns:cc="http://creativecommons.org/ns#"
   xmlns:rdf="http://www.w3.org/1999/02/22-rdf-syntax-ns#"
   xmlns:svg="http://www.w3.org/2000/svg"
   xmlns="http://www.w3.org/2000/svg"
   viewBox="0 0 224.63867 165.672"
   height="165.672"
   width="224.63867"
   xml:space="preserve"
   id="svg2"
   version="1.1"><metadata
     id="metadata8"><rdf:RDF><cc:Work
         rdf:about=""><dc:format>image/svg+xml</dc:format><dc:type
           rdf:resource="http://purl.org/dc/dcmitype/StillImage" /></cc:Work></rdf:RDF></metadata><defs
     id="defs6"><clipPath
       id="clipPath18"
       clipPathUnits="userSpaceOnUse"><path
         id="path16"
         d="M 0,124.254 H 168.479 V 0 H 0 Z" /></clipPath></defs><g
     transform="matrix(1.3333333,0,0,-1.3333333,0,165.672)"
     id="g10"><g
       id="g12"><g
         clip-path="url(#clipPath18)"
         id="g14"><g
           transform="translate(32.4567,98.4995)"
           id="g20"><path
             id="path22"
             style="fill:#ffffff;fill-opacity:1;fill-rule:nonzero;stroke:none"
             d="m 0,0 -1.024,-1.484 -2.659,1.981 0.061,-0.96 c 0.02,-0.638 0.044,-1.279 0.064,-1.917 l 0.06,-0.96 H -5.291 L -5.106,0.497 -7.704,-1.484 -8.758,0 l 3.125,1.796 -3.125,1.762 1.054,1.487 2.598,-1.95 -0.185,3.807 h 1.793 C -3.602,4.364 -3.652,3.085 -3.652,3.065 L -1.024,5.045 0,3.558 -3.156,1.796 Z m 46.47,-10.168 c -0.375,0 -0.681,0.3 -0.681,0.675 v 0.023 c 0.006,0.369 0.311,0.669 0.681,0.669 14.05,0 25.436,11.386 25.436,25.431 v 9.124 H 43.984 c -9.639,0 -18.365,-3.91 -24.681,-10.226 C 12.987,9.212 9.076,0.485 9.076,-9.153 c 0,-0.311 -0.248,-0.559 -0.559,-0.559 -0.312,0 -0.566,0.248 -0.566,0.559 V 2.244 c 0,2.861 -1.159,5.457 -3.034,7.331 -1.874,1.875 -4.47,3.034 -7.331,3.034 -5.306,0 -9.684,-3.991 -10.289,-9.136 -0.052,-0.404 -0.075,-0.813 -0.075,-1.229 0,0.416 0.023,0.825 0.075,1.229 l -4.505,-5.405 h 4.43 v 0 -7.63 c 0,-11.646 4.723,-22.195 12.354,-29.832 7.637,-7.631 18.187,-12.355 29.832,-12.355 10.988,0 21.526,4.366 29.295,12.136 l 29.445,29.445 z" /></g><g
           transform="translate(32.0228,67.9128)"
           id="g24"><path
             id="path26"
             style="fill:#000000;fill-opacity:1;fill-rule:nonzero;stroke:none"
             d="m 0,0 0.401,-3.2 c -0.909,-1.948 -12.282,-24.134 -13.264,-24.257 -0.206,-0.026 -0.264,0.02 -0.47,-0.006 l 0.007,-0.052 c -0.93,-0.117 -6.628,0.998 -6.829,2.598 -0.407,3.252 6.14,24.202 8.104,34.042 -1.392,-2.271 -12.799,-17.063 -14.389,-27.799 -0.981,-0.123 -5.369,2.262 -5.557,3.759 -0.334,2.669 2.621,18.548 4.105,24.428 0.094,0.374 -1.565,0.755 -0.337,2.335 0.508,0.549 1.357,0.484 1.538,0.452 1.477,-0.256 5.349,-3.475 5.488,-4.578 0.142,-1.135 -1.862,-9.827 -3.621,-15.867 4.693,10.235 13.528,21.303 14.761,23.187 1.547,0.194 5.007,-2.308 5.252,-4.269 C -4.435,7.78 -11.229,-12.05 -12.948,-22.592 -9.53,-18.495 0,0 0,0" /></g><g
           transform="translate(41.2317,77.0094)"
           id="g28"><path
             id="path30"
             style="fill:#000000;fill-opacity:1;fill-rule:nonzero;stroke:none"
             d="M 0,0 C 0.837,-0.6 1.973,-1.097 3.368,-1.236 2.755,0.244 1.446,0.503 0.506,0.453 0.317,0.316 0.198,0.086 0,0 m 3.602,-4.256 c -2.25,-0.107 -4.214,0.939 -5.315,2.181 -4.071,-5.681 -7.387,-15.296 -5.865,-21.318 0.135,-0.506 0.501,-2.079 1.254,-1.85 4.509,1.113 9.215,14.755 9.926,20.987 M 14.527,3.98 14.419,1.115 c 0,0 -1.74,-2.87 -6.685,-4.53 C 7.065,-10.221 2.184,-26 -6.114,-28.108 c -2.029,-0.492 -6.428,2.208 -7.285,5.809 -2.79,10.822 1.9,25.904 8.675,27.655 2.233,0.527 6.526,-0.946 7.859,-1.992 1.643,0.272 3.557,-0.466 4.534,-4.154 4.364,1.353 6.677,4.582 6.858,4.77" /></g><g
           transform="translate(78.4935,73.3114)"
           id="g32"><path
             id="path34"
             style="fill:#000000;fill-opacity:1;fill-rule:nonzero;stroke:none"
             d="m 0,0 c 0.668,-6.782 -4.831,-22.062 -10.214,-22.592 -6.316,-0.622 -7.696,3.319 -5.212,3.563 6.316,0.622 8.263,14.616 7.829,19.016 -0.122,1.242 -0.634,1.662 -1.255,1.6 -7.921,-0.78 -15.297,-34.99 -17.766,-44.955 0.02,-1.253 0.028,-2.402 0.13,-3.438 -1.586,-1.932 -6.731,4.591 -6.828,5.575 -0.698,7.093 8.847,45.893 8.536,49.05 1.139,0.112 6.399,-2.155 6.659,-4.795 0.362,-3.675 -2.446,-12.314 -4.612,-21.622 3.842,11.929 9.898,25.801 16.11,26.413 C -5.276,7.947 -0.484,4.917 0,0" /></g><g
           transform="translate(95.1212,77.0201)"
           id="g36"><path
             id="path38"
             style="fill:#000000;fill-opacity:1;fill-rule:nonzero;stroke:none"
             d="m 0,0 c -0.414,0.366 -1.094,0.75 -2.022,0.63 -4.385,-0.566 -9.272,-15.934 -8.38,-22.847 0.06,-0.464 0.1,-0.774 0.147,-1.135 l 0.051,0.007 0.014,-0.104 c 0.013,-0.103 0.013,-0.103 0.02,-0.155 C -9.362,-25.388 -3.381,-9.563 0,0 m 13.262,-4.005 0.439,-3.405 c -1.12,-2.295 -10.398,-23.056 -11.43,-23.189 -0.102,-0.014 -0.206,-0.027 -0.206,-0.027 -0.257,-0.033 -0.529,0.037 -0.814,0.211 -1.738,0.457 -5.035,2.443 -5.354,4.919 -0.42,3.251 0.708,9.533 2.167,15.701 -2.869,-8.239 -5.849,-16.438 -6.88,-16.571 -0.981,-0.127 -6.927,2.462 -7.394,6.073 -1.325,10.267 4.686,23.607 7.781,24.007 C -5.437,4.1 -0.956,3.338 0.382,1.098 1.205,3.25 1.87,5.014 2.176,5.892 2.347,6.596 2.391,7.074 2.371,7.228 3.248,7.342 8.08,5.658 7.445,3.268 6.533,0.581 1.624,-15.421 1.632,-25.646 c 3.012,3.483 11.63,21.641 11.63,21.641" /></g><g
           transform="translate(122.1233,77.1541)"
           id="g40"><path
             id="path42"
             style="fill:#000000;fill-opacity:1;fill-rule:nonzero;stroke:none"
             d="m 0,0 c -0.414,0.306 -1.014,0.794 -2.3,0.601 -4.372,-0.659 -13.81,-15.178 -12.199,-25.877 0.077,-0.515 0.206,-1.021 0.481,-1.453 C -12.631,-27.204 -4.624,-10.165 0,0 M 10.181,4.523 C 9.52,2.268 -11.75,-55.515 -8.236,-66.979 c -1.234,-0.186 -5.93,2 -6.371,4.932 -0.016,0.103 -0.031,0.206 -0.031,0.206 -3.62,2.033 -9.567,3.45 -19.545,1.948 -16.666,-2.51 -29.395,-15.923 -27.968,-15.972 1.427,-0.048 -0.977,-1.199 -1.44,-1.269 -2.932,-0.442 -3.551,6.565 -3.333,8.964 0.317,3.836 15.69,14.309 29.013,16.315 11.882,1.79 19.262,-1.859 23.473,-4.328 1.255,10.184 8.371,29.897 11.618,42.222 -4.555,-10.628 -7.811,-14.994 -9.252,-15.211 -1.028,-0.155 -6.6,2.267 -7.143,5.869 -2.106,13.99 5.811,27.085 8.898,27.55 3.395,0.511 9.633,-0.405 10.818,-3.383 1.418,3.16 2.387,5.462 2.756,6.149 0.228,0.928 0.424,1.379 0.432,1.327 0.874,0.132 7.076,-1.414 6.492,-3.817" /></g><g
           transform="translate(91.9126,66.8057)"
           id="g44"><path
             id="path46"
             style="fill:#000000;fill-opacity:1;fill-rule:nonzero;stroke:none"
             d="m 0,0 c -0.209,-0.483 -4.062,-10.832 -4.411,-11.471 -5.016,-9.202 -15.183,-14.192 -16.479,-13.395 -1.296,0.797 -0.232,1.181 -0.381,1.578 -0.229,0.69 -2.734,-1.331 -3.415,-2.439 -0.654,-1.063 1.167,-5.414 4.685,-5.929 3.637,-0.465 14.952,12.749 19.089,21.153 0.483,0.98 2.26,2.418 2.453,3.581 C 2.518,-4.836 1.708,-1.05 0,0" /></g><text
           id="text50"
           style="font-variant:normal;font-weight:normal;font-stretch:condensed;font-size:9px;font-family:PlumbCondensed;-inkscape-font-specification:PlumbCondensed-Regular;writing-mode:lr-tb;fill:#000000;fill-opacity:1;fill-rule:nonzero;stroke:none"
           transform="matrix(1,0,0,-1,119.8164,22.9297)"><tspan
             id="tspan48"
             y="0"
             x="0 5.6069999 11.394 17.622 21.348 26.91 33.092999 38.807999 44.937">СОЦІАЛЬНІ</tspan></text>
</g></g><text
       id="text54"
       style="font-variant:normal;font-weight:normal;font-stretch:condensed;font-size:9px;font-family:PlumbCondensed;-inkscape-font-specification:PlumbCondensed-Regular;writing-mode:lr-tb;fill:#000000;fill-opacity:1;fill-rule:nonzero;stroke:none"
       transform="matrix(1,0,0,-1,119.8164,12.1299)"><tspan
         id="tspan52"
         y="0"
         x="0 6.1290002 11.853 17.639999 22.931999 28.691999 33.785999">ПРОЕКТИ</tspan></text>
</g></svg>