<?xml version="1.0" encoding="UTF-8" standalone="no"?>
<svg
   xmlns:dc="http://purl.org/dc/elements/1.1/"
   xmlns:cc="http://creativecommons.org/ns#"
   xmlns:rdf="http://www.w3.org/1999/02/22-rdf-syntax-ns#"
   xmlns:svg="http://www.w3.org/2000/svg"
   xmlns="http://www.w3.org/2000/svg"
   viewBox="0 0 303.43875 302.06"
   height="302.06"
   width="303.43875"
   xml:space="preserve"
   version="1.1"
   id="svg2"><metadata
     id="metadata8"><rdf:RDF><cc:Work
         rdf:about=""><dc:format>image/svg+xml</dc:format><dc:type
           rdf:resource="http://purl.org/dc/dcmitype/StillImage" /></cc:Work></rdf:RDF></metadata><defs
     id="defs6"><clipPath
       id="clipPath16"
       clipPathUnits="userSpaceOnUse"><path
         id="path18"
         d="m 0,241.648 242.751,0 L 242.751,0 0,0 0,241.648 Z" /></clipPath></defs><g
     transform="matrix(1.25,0,0,-1.25,0,302.06)"
     id="g10"><g
       id="g12"><g
         clip-path="url(#clipPath16)"
         id="g14"><g
           transform="translate(0,113.0439)"
           id="g20"><path
             id="path22"
             style="fill:#2b2b2a;fill-opacity:1;fill-rule:nonzero;stroke:none"
             d="m 0,0 c 0,4.912 0,9.824 0,14.736 0.125,0.559 0.282,1.114 0.369,1.68 0.934,6.054 1.579,12.169 2.838,18.154 2.736,13.003 7.874,25.093 14.853,36.382 7.501,12.133 16.866,22.618 28.05,31.496 13.285,10.547 28.144,17.992 44.514,22.261 13.787,3.596 27.826,4.673 42.07,3.35 16.503,-1.532 32.029,-6.203 46.551,-14.096 16.413,-8.921 30.088,-21.02 40.932,-36.26 11.631,-16.346 18.851,-34.442 21.422,-54.365 0.371,-2.869 0.768,-5.735 1.152,-8.602 l 0,-14.736 c -0.124,-0.627 -0.284,-1.25 -0.367,-1.883 -0.584,-4.482 -0.918,-9.011 -1.769,-13.441 -2.877,-14.983 -8.314,-28.981 -16.481,-41.913 -10.138,-16.053 -23.29,-29.071 -39.427,-39.002 -13.619,-8.382 -28.359,-13.893 -44.225,-16.247 -1.238,-0.184 -2.478,-0.361 -3.826,-0.558 l 0,89.842 41.62,0 c 1.273,10.226 2.522,20.251 3.804,30.546 l -45.524,0 c 0,4.872 -0.015,9.508 0.003,14.145 0.037,9.725 6.444,16.107 16.191,16.123 9.048,0.014 18.096,0.003 27.143,0.003 l 2.186,0 0,30.241 c -0.598,0.065 -1.096,0.166 -1.594,0.167 -9.242,0.01 -18.484,0.054 -27.726,-0.004 -10.213,-0.065 -19.613,-2.707 -27.91,-8.895 -9.65,-7.198 -15.948,-16.64 -17.767,-28.492 -1.05,-6.843 -0.642,-13.91 -0.883,-20.877 -0.026,-0.749 -0.004,-1.501 -0.004,-2.442 l -22.684,0 0,-30.543 22.537,0 0,-89.753 c -0.662,0.052 -1.173,0.065 -1.676,0.134 -12.182,1.671 -23.836,5.156 -34.934,10.422 -14.4,6.834 -26.923,16.224 -37.706,27.966 -8.587,9.351 -15.493,19.813 -20.763,31.338 -4.395,9.612 -7.578,19.625 -9.177,30.099 C 1.131,-8.692 0.594,-4.342 0,0" /></g></g></g></g></svg>