<?xml version="1.0" encoding="UTF-8" standalone="no"?>
<svg
   xmlns:dc="http://purl.org/dc/elements/1.1/"
   xmlns:cc="http://creativecommons.org/ns#"
   xmlns:rdf="http://www.w3.org/1999/02/22-rdf-syntax-ns#"
   xmlns:svg="http://www.w3.org/2000/svg"
   xmlns="http://www.w3.org/2000/svg"
   viewBox="0 0 389.48376 389.45749"
   height="389.45749"
   width="389.48376"
   xml:space="preserve"
   version="1.1"
   id="svg2"><metadata
     id="metadata8"><rdf:RDF><cc:Work
         rdf:about=""><dc:format>image/svg+xml</dc:format><dc:type
           rdf:resource="http://purl.org/dc/dcmitype/StillImage" /></cc:Work></rdf:RDF></metadata><defs
     id="defs6"><clipPath
       id="clipPath16"
       clipPathUnits="userSpaceOnUse"><path
         id="path18"
         d="m 0,311.566 311.587,0 L 311.587,0 0,0 0,311.566 Z" /></clipPath></defs><g
     transform="matrix(1.25,0,0,-1.25,0,389.4575)"
     id="g10"><g
       id="g12"><g
         clip-path="url(#clipPath16)"
         id="g14"><g
           transform="translate(220.2139,150.8496)"
           id="g20"><path
             id="path22"
             style="fill:#2b2b2a;fill-opacity:1;fill-rule:nonzero;stroke:none"
             d="m 0,0 c 9.148,0 17.772,-0.033 26.396,0.016 3.738,0.021 5.042,1.371 5.107,5.037 0.035,1.983 0.019,3.966 0.001,5.949 -0.026,3.007 -1.521,4.45 -4.565,4.426 -5.831,-0.047 -11.663,-0.013 -17.495,-0.012 -3.096,0 -6.193,0 -9.444,0 0,4.854 0,9.163 0,13.472 0,4.432 -0.015,8.864 0.004,13.296 0.013,3.098 -1.296,4.846 -4.593,4.766 -2.215,-0.054 -4.432,-0.021 -6.648,-0.009 -2.922,0.014 -4.228,-1.497 -4.21,-4.345 0.022,-3.616 0.004,-7.232 0.004,-10.847 -0.001,-5.328 -0.001,-10.655 -0.001,-15.799 -0.622,-0.275 -0.826,-0.443 -1.031,-0.444 -6.763,-0.04 -13.527,-0.128 -20.289,-0.076 -10.974,0.085 -10.262,0.445 -10.192,-10.269 0.025,-3.911 1.245,-5.13 5.276,-5.151 7.465,-0.038 14.93,-0.011 22.394,-0.011 1.223,0 2.446,0 3.846,0 0,-7.776 0,-14.996 0,-22.216 0,-9.398 0,-9.398 9.522,-9.338 4.761,0.03 5.91,1.186 5.915,6.02 C 0.007,-17.162 0,-8.789 0,0 m -100.906,-10.996 c -2.849,-0.28 -6.112,-0.447 -9.324,-0.943 -13.296,-2.053 -24.979,-7.31 -33.882,-17.73 -13.112,-15.347 -10.052,-33.585 7.328,-43.745 2.497,-1.46 5.159,-2.702 7.864,-3.732 12.297,-4.681 25.046,-6.064 38.101,-4.853 10.999,1.019 21.214,4.273 29.942,11.25 9.153,7.318 14.117,16.685 14.058,28.687 -0.068,14.164 -6.503,24.574 -17.706,32.683 -3.738,2.706 -7.127,6.001 -10.258,9.41 -2.985,3.251 -2.717,5.989 0.37,9.238 1.758,1.849 3.756,3.488 5.752,5.09 12.298,9.874 17.563,22.45 13.926,37.999 -1.186,5.073 -3.784,9.815 -5.415,13.903 2.562,1.265 5.44,2.511 8.136,4.072 2.106,1.22 3.971,2.852 5.971,4.262 1.865,1.313 3.708,2.624 2.797,5.352 -0.91,2.727 -3.194,2.624 -5.457,2.622 -15.393,-0.013 -30.786,0.033 -46.179,-0.02 -11.821,-0.041 -22.464,-3.697 -31.652,-11.128 -10.988,-8.887 -16.929,-20.218 -14.575,-34.599 2.54,-15.515 11.707,-25.803 26.612,-30.743 3.914,-1.297 8.097,-1.784 11.772,-2.561 0.603,-4.816 1.202,-9.589 1.819,-14.514 m 36.614,171.711 C 21.734,160.416 91.221,90.883 91.373,4.949 91.524,-80.876 21.126,-151.218 -64.545,-150.848 c -86.198,0.372 -155.54,69.728 -155.669,155.699 -0.128,85.794 70.265,156.162 155.922,155.864" /></g><g
           transform="translate(119.8173,83.6367)"
           id="g24"><path
             id="path26"
             style="fill:#2b2b2a;fill-opacity:1;fill-rule:nonzero;stroke:none"
             d="m 0,0 c -5.995,0.076 -14.315,2.122 -20.88,8.794 -8.066,8.196 -7.947,18.941 0.784,26.395 10.001,8.54 21.913,11.236 34.325,7.259 C 21.09,40.249 27.262,35.517 31.45,29.279 36.501,21.758 32.762,9.691 24.275,4.731 19.162,1.744 11.642,0.076 0,0" /></g><g
           transform="translate(142.0549,185.7517)"
           id="g28"><path
             id="path30"
             style="fill:#2b2b2a;fill-opacity:1;fill-rule:nonzero;stroke:none"
             d="m 0,0 c -0.537,-2.129 -1.031,-5.992 -2.48,-9.456 -3.736,-8.931 -12.376,-11.684 -20.713,-6.71 -8.315,4.962 -12.644,12.801 -14.763,21.964 -1.305,5.644 -1.291,11.33 0.688,16.864 3.599,10.063 13.189,13.641 22.211,7.869 C -4.663,23.88 -0.644,13.65 0,0" /></g></g></g></g></svg>