<?xml version="1.0" encoding="UTF-8" standalone="no"?>
<svg
   xmlns:dc="http://purl.org/dc/elements/1.1/"
   xmlns:cc="http://creativecommons.org/ns#"
   xmlns:rdf="http://www.w3.org/1999/02/22-rdf-syntax-ns#"
   xmlns:svg="http://www.w3.org/2000/svg"
   xmlns="http://www.w3.org/2000/svg"
   viewBox="0 0 480.63876 480.83249"
   height="480.83249"
   width="480.63876"
   xml:space="preserve"
   version="1.1"
   id="svg2"><metadata
     id="metadata8"><rdf:RDF><cc:Work
         rdf:about=""><dc:format>image/svg+xml</dc:format><dc:type
           rdf:resource="http://purl.org/dc/dcmitype/StillImage" /></cc:Work></rdf:RDF></metadata><defs
     id="defs6"><clipPath
       id="clipPath16"
       clipPathUnits="userSpaceOnUse"><path
         id="path18"
         d="m 0,384.666 384.511,0 L 384.511,0 0,0 0,384.666 Z" /></clipPath></defs><g
     transform="matrix(1.25,0,0,-1.25,0,480.8325)"
     id="g10"><g
       id="g12"><g
         clip-path="url(#clipPath16)"
         id="g14"><g
           transform="translate(86.677,189.8167)"
           id="g20"><path
             id="path22"
             style="fill:#2b2b2a;fill-opacity:1;fill-rule:nonzero;stroke:none"
             d="m 0,0 c 0,-21.321 -0.174,-42.643 0.047,-63.961 0.244,-23.658 17.477,-41.024 41.043,-41.132 42.312,-0.195 84.627,-0.188 126.939,-0.003 23.573,0.103 41.04,17.295 41.213,41.004 0.313,42.638 0.329,85.283 -0.022,127.922 -0.19,23.057 -16.458,40.076 -39.571,40.411 -43.287,0.627 -86.596,0.643 -129.883,0.01 C 16.213,103.907 0.29,86.614 0.049,62.977 -0.165,41.987 0.004,20.993 0,0 M 105.501,194.85 C 211.804,194.925 297.598,109.426 297.834,3.177 298.07,-103.369 212.029,-189.773 105.65,-189.817 -0.729,-189.861 -86.807,-103.548 -86.677,3.036 c 0.13,106.222 85.809,191.739 192.178,191.814" /></g><g
           transform="translate(106.9814,210.4057)"
           id="g24"><path
             id="path26"
             style="fill:#2b2b2a;fill-opacity:1;fill-rule:nonzero;stroke:none"
             d="m 0,0 30.228,0 c -7.924,-29.36 -1.138,-53.796 25.025,-70.028 19.815,-12.293 40.94,-11.731 60.29,1.37 24.495,16.583 30.568,40.336 22.777,68.624 l 30.204,0 c 0,-9.92 0,-19.648 0,-29.377 0,-17.052 0.07,-34.106 -0.021,-51.158 -0.091,-17.111 -6.929,-24.203 -23.633,-24.24 -40.664,-0.089 -81.328,-0.097 -121.992,0.01 -14.217,0.038 -22.46,6.825 -22.717,20.191 C -0.372,-56.793 0,-28.961 0,0" /></g><g
           transform="translate(191.2745,153.0825)"
           id="g28"><path
             id="path30"
             style="fill:#2b2b2a;fill-opacity:1;fill-rule:nonzero;stroke:none"
             d="M 0,0 C -20.422,0.005 -37.072,16.629 -36.792,36.736 -36.511,56.882 -19.474,73.564 0.529,73.279 20.116,72.999 36.704,56.318 36.89,36.715 37.08,16.588 20.408,-0.005 0,0" /></g><path
           id="path32"
           style="fill:#2b2b2a;fill-opacity:1;fill-rule:nonzero;stroke:none"
           d="m 236.728,269.075 34.546,0 0,-33.731 -34.546,0 0,33.731 z" /></g></g></g></svg>