<?xml version="1.0" encoding="UTF-8" standalone="no"?>
<svg
   xmlns:dc="http://purl.org/dc/elements/1.1/"
   xmlns:cc="http://creativecommons.org/ns#"
   xmlns:rdf="http://www.w3.org/1999/02/22-rdf-syntax-ns#"
   xmlns:svg="http://www.w3.org/2000/svg"
   xmlns="http://www.w3.org/2000/svg"
   viewBox="0 0 315.89999 315.89999"
   height="315.89999"
   width="315.89999"
   xml:space="preserve"
   version="1.1"
   id="svg2"><metadata
     id="metadata8"><rdf:RDF><cc:Work
         rdf:about=""><dc:format>image/svg+xml</dc:format><dc:type
           rdf:resource="http://purl.org/dc/dcmitype/StillImage" /></cc:Work></rdf:RDF></metadata><defs
     id="defs6"><clipPath
       id="clipPath16"
       clipPathUnits="userSpaceOnUse"><path
         id="path18"
         d="m 0,252.72 252.72,0 L 252.72,0 0,0 0,252.72 Z" /></clipPath></defs><g
     transform="matrix(1.25,0,0,-1.25,0,315.9)"
     id="g10"><g
       id="g12"><g
         clip-path="url(#clipPath16)"
         id="g14"><g
           transform="translate(96.6091,170.955)"
           id="g20"><path
             id="path22"
             style="fill:#2b2b2a;fill-opacity:1;fill-rule:nonzero;stroke:none"
             d="M 0,0 C 0.441,-0.338 0.611,-0.534 0.826,-0.619 1.358,-0.83 1.9,-1.033 2.455,-1.166 c 3.98,-0.957 6.666,-3.393 7.321,-7.409 0.685,-4.196 1.233,-8.486 1.147,-12.72 -0.119,-5.799 -0.462,-11.663 -1.512,-17.352 -0.951,-5.157 -4.175,-6.023 -8.14,-2.491 -2.298,2.047 -4.221,4.589 -6.012,7.121 -6.617,9.357 -11.907,19.461 -16.219,30.059 -1.791,4.401 -4.806,6.274 -9.511,6.17 -7.317,-0.162 -14.64,-0.01 -21.96,-0.053 -6.594,-0.039 -8.05,-2.278 -5.188,-8.216 4.558,-9.459 8.977,-19 13.953,-28.239 7.883,-14.637 16.588,-28.783 28.275,-40.795 15.004,-15.423 33.436,-21.362 54.639,-19.308 3.067,0.297 4.521,1.711 5.075,4.802 0.375,2.098 0.247,4.31 0.797,6.348 0.882,3.276 1.781,6.639 3.343,9.613 1.413,2.69 3.668,3.081 6.317,1.657 1.777,-0.956 3.493,-2.195 4.902,-3.635 3.68,-3.76 7.148,-7.726 10.755,-11.559 3.809,-4.047 8.168,-7.35 13.965,-7.46 9.698,-0.183 19.402,-0.087 29.103,-0.003 2.414,0.021 4.2,1.563 4.482,3.845 0.247,2.006 -0.025,4.28 -0.774,6.153 -0.866,2.166 -2.254,4.257 -3.852,5.974 -6.214,6.672 -12.509,13.273 -18.949,19.727 -6.066,6.08 -6.426,8.841 -1.371,15.696 5.512,7.474 11.119,14.881 16.539,22.421 3.837,5.336 7.39,10.869 8.767,17.461 0.511,2.448 -0.301,4.039 -2.703,4.692 -1.88,0.512 -3.862,0.874 -5.803,0.898 -8.471,0.103 -16.943,0.066 -25.415,0.065 -5.235,0 -6.539,-1.097 -8.773,-5.861 -3.653,-7.788 -7.176,-15.681 -11.505,-23.092 -3.076,-5.267 -7.215,-9.96 -11.21,-14.626 -2.359,-2.755 -5.468,-2.211 -6.907,1.091 -0.983,2.257 -1.557,4.859 -1.615,7.323 -0.2,8.55 -0.078,17.107 -0.115,25.661 -0.009,2.216 0.02,4.455 -0.27,6.643 C 43.495,3.481 41.159,5.62 37.078,5.66 27.785,5.75 18.49,5.733 9.196,5.657 5.127,5.624 1.98,3.86 0,0 m 21.36,81.765 16.782,0 c 3.085,-0.378 6.181,-0.681 9.253,-1.145 29.638,-4.478 54.835,-17.519 75.215,-39.527 16.7,-18.033 27.264,-39.226 31.525,-63.477 0.805,-4.581 1.325,-9.212 1.976,-13.82 l 0,-16.782 c -0.376,-3.073 -0.678,-6.158 -1.14,-9.219 -4.466,-29.642 -17.509,-54.839 -39.507,-75.225 -18.093,-16.767 -39.361,-27.353 -63.712,-31.578 -4.514,-0.783 -9.072,-1.305 -13.61,-1.947 l -16.782,0 c -3.085,0.378 -6.181,0.681 -9.252,1.145 -29.639,4.478 -54.836,17.519 -75.216,39.527 -16.699,18.033 -27.263,39.226 -31.525,63.477 -0.805,4.581 -1.325,9.212 -1.976,13.82 0,5.594 0,11.188 0,16.782 0.376,3.074 0.679,6.158 1.14,9.219 4.466,29.642 17.51,54.839 39.508,75.226 18.092,16.767 39.361,27.353 63.712,31.577 4.513,0.783 9.071,1.305 13.609,1.947" /></g></g></g></g></svg>